<svg version="1.2" xmlns="http://www.w3.org/2000/svg" viewBox="0 0 150 150" width="150" height="150"><style>.a{fill:#9bcb4e}.b{fill:#2f2e41}.c{fill:#fff}.d{fill:#e6e6e6}.e{fill:#3f3d56}</style><path class="a" d="m123.8 134q0 0 0 0 0 0 0 0 0 0 0.1 0 0 0 0 0 0-0.1 0-0.1 0 0 0-0.1 0 0 0.1 0 0-0.1 0-0.1l4.1-7.3 3.4-5.9h5.9l-0.4 0.7-0.8 1.3-2.2 3.9-4.9 8.6 4.5 11.3c0.2 0.4-0.1 1.1-0.7 1.5l-2.2 1.3q-0.1 0.1-0.1 0.1-0.1 0.1-0.2 0.1-0.1 0-0.2 0-0.1 0-0.2 0c-0.3 0-0.5-0.1-0.6-0.4l-5.6-14.1q-0.1-0.1-0.1-0.2 0-0.1 0-0.2 0-0.1 0-0.2 0.1-0.1 0.1-0.2z"/><path class="b" d="m131.7 133.6l-5.9-2.7q-0.2-0.1-0.4-0.3-0.1-0.2-0.2-0.4-0.1-0.3-0.1-0.5 0-0.3 0.1-0.5l1.7-5.8q0.1-0.3 0.2-0.5 0.1-0.2 0.3-0.3 0.2-0.1 0.4-0.1 0.3 0 0.5 0.1l5.8 2.7q0.2 0.1 0.4 0.3 0.1 0.2 0.2 0.4 0.1 0.2 0.1 0.5 0 0.3 0 0.5l-1.8 5.8q0 0.3-0.2 0.5-0.1 0.2-0.3 0.3-0.2 0.1-0.4 0.1-0.2 0-0.4-0.1z"/><path class="c" d="m126.7 130.4q0 0-0.1 0 0 0 0 0 0 0 0 0 0 0 0 0-0.1-0.1-0.2-0.1 0-0.1 0-0.2-0.1 0-0.1-0.1 0-0.1 0.1-0.2l2.1-7.1q0.1-0.2 0.2-0.2 0.1-0.1 0.2-0.1 0.2 0.1 0.2 0.3 0.1 0.1 0 0.3l-2.1 7.1q0 0.1-0.1 0.1 0 0.1 0 0.1-0.1 0-0.1 0.1-0.1 0-0.1 0z"/><path class="a" d="m136.1 148.3v-25.8q0 0 0 0 0 0 0 0 0 0 0 0 0 0 0 0 0-0.3 0.1-0.5 0.1-0.2 0.2-0.4 0.1-0.2 0.2-0.3 0.2-0.1 0.3-0.2 0.1 0 0.1-0.1 0.1 0 0.1 0 0.1 0 0.2 0 0 0 0.1 0h2.4q0.2 0 0.5 0.1 0.2 0.1 0.4 0.3 0.1 0.2 0.2 0.5 0.1 0.3 0.1 0.6v25.8q0 0.3-0.1 0.6-0.1 0.3-0.2 0.5-0.2 0.2-0.4 0.3-0.3 0.1-0.5 0.1h-2.4q-0.3 0-0.5-0.1-0.2-0.1-0.4-0.3-0.2-0.2-0.3-0.5-0.1-0.3-0.1-0.6z"/><path class="b" d="m134.8 132.2v-6.2q0-0.2 0.1-0.5 0.1-0.2 0.2-0.4 0.2-0.2 0.4-0.3 0.2-0.1 0.4-0.1h6.2q0.3 0 0.5 0.1 0.1 0.1 0.3 0.3 0.2 0.2 0.2 0.4 0.1 0.3 0.1 0.5v6.2q0 0.3-0.1 0.5 0 0.3-0.2 0.5-0.2 0.1-0.3 0.2-0.2 0.1-0.5 0.1h-6.2q-0.2 0-0.4-0.1-0.2-0.1-0.4-0.2-0.1-0.2-0.2-0.5-0.1-0.2-0.1-0.5z"/><path class="c" d="m139.6 132.9q-0.1 0-0.1 0-0.1-0.1-0.1-0.1-0.1-0.1-0.1-0.2 0 0 0-0.1v-7.6q0-0.2 0.1-0.3 0.1-0.2 0.2-0.2 0.1 0 0.2 0.2 0.1 0.1 0.1 0.3v7.6q0 0.1 0 0.1 0 0.1-0.1 0.2 0 0-0.1 0.1 0 0-0.1 0z"/><path class="a" d="m128.4 102.9l-18.1-11.6q-0.2-0.1-0.3-0.4-0.2-0.2-0.3-0.5 0-0.3 0-0.6 0-0.3 0.1-0.6l1.1-2.7q0.1-0.2 0.3-0.4 0.2-0.2 0.5-0.3 0.2-0.1 0.4-0.1 0.3 0 0.5 0.2l18 11.6q0 0 0.1 0 0 0.1 0 0.1 0.1 0 0.1 0 0 0.1 0 0.1 0.2 0.2 0.3 0.4 0.1 0.2 0.1 0.5 0.1 0.2 0.1 0.5-0.1 0.2-0.2 0.5l-1.1 2.7q0 0.1-0.1 0.2-0.1 0.1-0.2 0.2-0.1 0.1-0.2 0.2-0.1 0.1-0.2 0.1-0.1 0-0.1 0.1 0 0-0.1 0 0 0-0.1 0 0 0-0.1 0-0.1 0-0.1 0-0.1 0-0.2 0 0-0.1-0.1-0.1-0.1 0-0.1-0.1z"/><path class="b" d="m128.7 103.6l-8.8-4.3q-0.2-0.2-0.3-0.4-0.2-0.2-0.3-0.5 0-0.3 0-0.6 0-0.3 0.1-0.6l2-5.1q0-0.2 0.1-0.3 0.1-0.1 0.2-0.2 0.1-0.1 0.2-0.2 0.1-0.1 0.2-0.1 0.1-0.1 0.2-0.1 0.2 0 0.3 0 0.1 0 0.2 0.1 0.2 0 0.3 0.1l7.9 6q0 0 0 0 0 0 0 0 0 0 0 0 0 0 0.1 0c0.2 0.3 0.3 0.8 0.3 1.3q0.1 0.2 0.1 0.3 0 0.1 0 0.1 0.1 0.2 0.1 0.3 0 0.1 0 0.3-0.1 0.1-0.1 0.2 0 0.2-0.1 0.3l-1.1 2.7q0 0.2-0.1 0.4-0.2 0.1-0.3 0.2-0.2 0.1-0.3 0.2-0.2 0.1-0.4 0.1 0 0-0.1-0.1-0.1 0-0.1 0-0.1 0-0.2 0 0-0.1-0.1-0.1z"/><path class="a" d="m135.2 89.5c-4.9 0-8.9-4.9-8.9-11 0-6.1 4-11.1 8.9-11.1 4.8 0 8.8 5 8.8 11.1 0 6.1-4 11-8.8 11z"/><path class="b" d="m135.7 84.4v-0.4c-0.6 0-1.2-0.1-1.6-0.4q-0.1-0.1-0.1-0.2-0.1-0.1-0.2-0.3 0-0.1 0-0.2-0.1-0.1-0.1-0.3 0-0.1 0-0.1 0-0.1 0.1-0.2 0-0.1 0-0.2 0.1 0 0.1-0.1c0.3-0.3 0.7-0.2 1 0l0.3 0.2-0.5-4.8h-0.3l0.4 4.1c-0.4-0.1-0.8-0.1-1.1 0.2q-0.1 0.1-0.1 0.2-0.1 0.1-0.1 0.2-0.1 0.1-0.1 0.3 0 0.1 0 0.2 0 0.2 0 0.4 0.1 0.2 0.2 0.3 0 0.2 0.1 0.3 0.1 0.2 0.2 0.3c0.6 0.5 1.2 0.5 1.8 0.5z"/><path class="b" d="m131 77.8h1.8v0.4h-1.8z"/><path class="b" d="m136.6 77.8h1.7v0.4h-1.7z"/><path class="b" d="m127.1 126.5c-0.6 0-1-1.2-1-2.7v-19.3q0-0.4 0-0.7 0-0.4 0.1-0.7 0-0.4 0-0.7 0.1-0.4 0.2-0.7 0.1-0.5 0.2-1 0.2-0.7 0.5-1.4 0.3-0.6 0.6-1.3 0.4-0.6 0.8-1.1 0.4-0.6 0.9-1.1 0.2-0.2 0.5-0.4 0.2-0.3 0.5-0.5 0.3-0.2 0.6-0.4 0.3-0.2 0.7-0.3 0.3-0.2 0.6-0.3 0-0.1 0-0.1 0-0.1 0-0.1 0-0.1 0-0.1 0-0.1 0-0.1 0-0.4 0.1-0.8 0.1-0.3 0.3-0.6 0.2-0.3 0.5-0.4 0.3-0.2 0.6-0.2h2.3q0.3 0 0.6 0.2 0.3 0.1 0.5 0.4 0.3 0.3 0.4 0.6 0.1 0.4 0.1 0.8 0 0 0 0.1 0 0 0 0.1 0 0 0 0.1 0 0 0 0.1 1.3 0.5 2.5 1.6 1.1 1 2 2.4 0.8 1.4 1.2 3.1 0.5 1.7 0.5 3.5v19.3c0 1.5-0.5 2.7-1.1 2.7h-15.6q0 0 0 0-0.1 0-0.1 0 0 0 0 0 0 0 0 0z"/><path class="a" d="m137.3 128.3q0-0.1-0.1-0.2 0-0.1 0-0.2 0-0.1 0-0.1-0.1-0.1-0.1-0.2l-0.3-25.4q0-0.1 0-0.3 0-0.1 0.1-0.3 0-0.1 0.1-0.2 0.1-0.2 0.1-0.3 0.1-0.1 0.2-0.2 0.1-0.1 0.2-0.1 0.2-0.1 0.3-0.1 0.1-0.1 0.2-0.1h2.4q0.3 0 0.5 0.1 0.2 0.1 0.4 0.3 0.2 0.2 0.3 0.4 0.1 0.3 0.1 0.6 0 0 0 0 0 0 0 0 0 0.1 0 0.1 0 0 0 0l0.3 25.4q0.1 0.3 0 0.5-0.1 0.3-0.3 0.6-0.2 0.2-0.4 0.3-0.2 0.1-0.5 0.1l-2.4 0.1q-0.2 0-0.3-0.1-0.2 0-0.3-0.1-0.2-0.1-0.3-0.3-0.1-0.1-0.2-0.3z"/><path class="b" d="m136.3 110.9q0-0.1-0.1-0.2 0 0 0-0.1 0-0.1-0.1-0.2 0-0.1 0-0.2l0.1-11.7q0-0.3 0.1-0.6 0.1-0.3 0.2-0.5 0.2-0.3 0.4-0.4 0.2-0.1 0.5-0.2l2.4-0.2q0.1 0 0.2 0 0.1 0 0.2 0 0.1 0.1 0.2 0.1 0.1 0.1 0.2 0.2 0.1 0 0.1 0.1 0 0 0 0 0.1 0 0.1 0 0 0.1 0 0.1 0.1 0 0.1 0v0.1c0.4 0.3 0.8 0.6 0.8 1l1.5 11.4q0 0.2 0 0.3-0.1 0.1-0.1 0.2 0 0.1 0 0.3-0.1 0.1-0.1 0.2 0 0-0.1 0 0 0 0 0.1 0 0 0 0 0 0 0 0.1-0.1 0-0.1 0 0 0 0 0 0 0.1 0 0.1 0 0-0.1 0 0 0.1-0.1 0.2-0.1 0-0.2 0.1-0.1 0-0.2 0.1-0.1 0-0.2 0l-4.5 0.4q-0.2 0-0.4-0.1-0.2 0-0.3-0.1-0.2-0.1-0.3-0.3-0.1-0.1-0.2-0.3z"/><path class="c" d="m127.7 123.8q0 0-0.1 0 0 0-0.1-0.1 0-0.1-0.1-0.1 0-0.1 0-0.2v-20q0-0.1 0.1-0.3 0.1-0.1 0.2-0.1 0.2 0 0.3 0.1 0.1 0.2 0.1 0.3v20q0 0.1 0 0.2-0.1 0-0.1 0.1-0.1 0.1-0.1 0.1-0.1 0-0.2 0z"/><path class="b" d="m143.2 75.8l-15.4-7q-0.1 0-0.2-0.1-0.1-0.1-0.1-0.3-0.1-0.1-0.1-0.3 0-0.2 0-0.3l0.1-0.3c1.2-4.1 5.2-6.7 8.4-5.2l4.7 2.2c3.3 1.5 4.7 6.3 3.5 10.4l-0.1 0.5q0 0.1-0.1 0.2-0.1 0.1-0.2 0.2-0.2 0.1-0.3 0.1-0.1 0-0.2-0.1z"/><path class="b" d="m144 76.2c-21.4 1-23.2-2.3-16.7-7.6l1.4-3.2 15.8 7.2z"/><path class="b" d="m139.8 64c-0.1 0.4-0.8 0.6-1.6 0.3-0.7-0.2-1.2-0.9-1.1-1.3 0.1-0.5 0.8-0.7 1.6-0.4 0.7 0.2 1.2 0.9 1.1 1.4z"/><path fill-rule="evenodd" class="d" d="m74.4 34.7c0 4.6-0.7 9.1-2.1 13.3-1.4 4.2-3.4 8-6 11.3-2.6 3.2-5.6 5.7-9 7.5-3.4 1.7-7 2.6-10.6 2.6-11.3 0-21-8.4-25.3-20.5q-0.6-1.6-1.1-3.4-0.4-1.7-0.7-3.5-0.3-1.8-0.5-3.6-0.2-1.8-0.2-3.7c0-19.1 12.5-34.7 27.8-34.7 15.3 0 27.7 15.6 27.7 34.7zm-3.6 10.6q0.4-1.7 0.8-3.4 0.3-1.8 0.5-3.6 0.1-1.8 0.1-3.6c0-17.6-11.4-31.9-25.5-31.9-14.1 0-25.5 14.3-25.5 31.9q0 1.5 0.1 3 0.1 1.4 0.3 2.9 0.2 1.5 0.5 2.9 0.4 1.4 0.8 2.8c3.7 11.9 13 20.4 23.8 20.4 2.4 0 4.7-0.5 7-1.3 2.3-0.8 4.5-2 6.5-3.6 2.1-1.6 3.9-3.5 5.5-5.7 1.6-2.3 2.9-4.7 3.9-7.4q0.7-1.7 1.2-3.4z"/><path class="a" d="m46.7 69.5c-2.6 0-5.2-0.4-7.7-1.3-2.5-0.9-4.9-2.3-7.2-4-2.2-1.8-4.2-3.9-5.9-6.4-1.7-2.4-3.2-5.1-4.3-8.1q-0.1-0.2-0.1-0.4 0-0.2 0-0.4 0-0.2 0-0.3 0.1-0.2 0.2-0.4 0.2-0.3 0.4-0.5 0.3-0.2 0.6-0.1 0.4 0 0.6 0.2 0.3 0.2 0.4 0.6c4.2 11 13.2 18.2 23 18.2q3.3-0.1 6.6-1.1 3.2-1.1 6.1-3.2 2.9-2.1 5.2-5c1.6-2 3-4.2 4.1-6.6q0.1-0.2 0.2-0.3 0.1-0.2 0.2-0.2 0.2-0.1 0.3-0.2 0.2 0 0.3 0 0.2 0 0.3 0 0.2 0.1 0.3 0.2 0.1 0.1 0.3 0.2 0.1 0.1 0.1 0.3h0.1q0 0.2 0.1 0.4 0 0.2 0 0.4 0 0.2 0 0.4-0.1 0.1-0.2 0.3c-1.2 2.6-2.7 5-4.4 7.2-1.7 2.1-3.6 4-5.7 5.5-2.1 1.5-4.4 2.7-6.7 3.4q-3.6 1.2-7.2 1.2z"/><path fill-rule="evenodd" class="d" d="m42.2 36.6q0.9 0.4 1.5 1.3 0.7 0.8 1 1.8 0.4 1.1 0.4 2.2c0 2.4-1.2 4.5-2.9 5.4-1.7 0.9-3.7 0.4-5-1.3-1.4-1.6-1.8-4.1-1-6.3 0.7-2.1 2.4-3.5 4.2-3.5q1 0 1.8 0.4zm-2.4 1.4q-0.3 0.1-0.6 0.2-0.3 0.2-0.6 0.4-0.2 0.2-0.4 0.5c-1.1 1.4-1.3 3.5-0.4 5.1 0.8 1.7 2.5 2.3 3.9 1.5 1.5-0.7 2.3-2.6 2-4.5-0.4-2-1.7-3.3-3.3-3.3q-0.3 0-0.6 0.1zm10.3-10.1c-0.5 0-0.9-0.2-1.2-0.6-0.3-0.4-0.4-0.9-0.4-1.4 0-0.5 0.2-1 0.5-1.4 0.3-0.4 0.7-0.6 1.1-0.6q0 0 0 0 0.3 0 0.6 0.2 0.3 0.1 0.5 0.4 0.2 0.3 0.3 0.6 0.2 0.4 0.2 0.8 0 0 0 0 0 0.4-0.2 0.8-0.1 0.3-0.3 0.6-0.2 0.3-0.5 0.4-0.3 0.2-0.6 0.2 0 0 0 0zm5.1 8.7q0.8 0.4 1.5 1.3 0.6 0.8 1 1.8 0.3 1.1 0.3 2.2c0 2.4-1.1 4.5-2.8 5.4-1.8 0.9-3.8 0.4-5.1-1.3-1.3-1.6-1.7-4.1-1-6.3 0.7-2.1 2.4-3.5 4.3-3.5q0.9 0 1.8 0.4zm-2.4 1.4q-0.4 0.1-0.6 0.2-0.3 0.2-0.6 0.4-0.3 0.2-0.5 0.5c-1.1 1.4-1.3 3.5-0.4 5.1 0.9 1.7 2.5 2.3 4 1.5 1.4-0.7 2.2-2.6 1.9-4.5-0.3-2-1.7-3.3-3.2-3.3q-0.3 0-0.6 0.1z"/><path class="d" d="m52.5 31.9h-2.4l-1.5-3.8q-0.2-0.4-0.5-0.6-0.3-0.3-0.6-0.3-0.4-0.1-0.7 0.1-0.4 0.1-0.6 0.4l-3.6 4.3q-0.1 0.1-0.2 0.3-0.1 0.2-0.1 0.3-0.1 0.2-0.1 0.4 0 0.2 0 0.4c0 1.1 0.6 1.5 0.9 1.7 2.2 1.6 3 1.8 3 2.6v4.1q0 0.4 0.3 0.7 0.2 0.3 0.5 0.3 0.3 0 0.6-0.3 0.2-0.3 0.2-0.7v-5.6c0-0.8-1.5-1.5-2.4-2.4l2.4-3.1c1 1.7 1.4 3.1 1.9 3.1h2.9q0.3 0 0.5-0.2 0.3-0.3 0.3-0.7 0-0.5-0.3-0.7-0.2-0.3-0.5-0.3 0 0 0 0z"/><path class="d" d="m24.4 88.2c-0.7 0-1.3 2.4-1.4 5.7h-13.1c-0.1-3.3-0.7-5.7-1.4-5.7-0.7 0-1.4 3-1.4 6.9 0 3.8 0.7 6.9 1.4 6.9 0.7 0 1.3-2.5 1.4-5.8h13.1c0.1 3.3 0.7 5.8 1.4 5.8 0.7 0 1.4-3.1 1.4-6.9 0-3.9-0.7-6.9-1.4-6.9z"/><path fill-rule="evenodd" class="d" d="m31.7 87.2q0.4 1.2 0.6 2.5 0.3 1.3 0.4 2.6 0.2 1.3 0.2 2.6c0 10.3-6.2 19.1-14.4 20.4-8.2 1.3-15.9-5.2-18-15.2-2-10 2.1-20.4 9.8-24.3 7.7-3.8 16.4 0 20.5 9.1q0.5 1.1 0.9 2.3zm-15.1 26.6c8.3-0.1 15-8.5 14.9-18.9 0-10.4-6.7-18.8-15-18.8-8.3 0-15 8.4-15 18.8-0.1 10.4 6.6 18.8 14.9 18.9q0.1 0 0.2 0z"/><path class="a" d="m16.4 115.5q-1.1 0-2.3-0.2-1.1-0.2-2.3-0.6-1.1-0.4-2.2-1-1-0.6-2-1.4-0.1 0-0.1-0.1 0 0-0.1-0.1 0 0 0-0.1-0.1 0-0.1-0.1 0-0.2-0.1-0.3 0-0.2 0.1-0.3 0-0.1 0.1-0.3 0-0.1 0.1-0.2 0.1-0.1 0.2-0.1 0.1-0.1 0.2-0.1 0.1 0 0.3 0 0.1 0.1 0.2 0.2c2.8 2.2 6.1 3.2 9.4 2.8 3.3-0.4 6.5-2.1 8.9-5 2.4-2.8 4-6.6 4.6-10.7 0.5-4.1-0.1-8.3-1.7-12q0-0.1 0-0.3-0.1-0.1 0-0.2 0-0.2 0-0.3 0.1-0.1 0.1-0.2 0.1-0.2 0.2-0.2 0.1-0.1 0.2-0.1 0.2-0.1 0.3 0 0.1 0 0.2 0v0.1q0.1 0 0.1 0 0.1 0.1 0.1 0.1 0.1 0.1 0.1 0.1 0 0.1 0.1 0.2c1.3 3.1 2 6.6 1.9 10.2 0 3.6-0.8 7.1-2.3 10.2-1.4 3-3.5 5.6-6 7.3-2.5 1.8-5.3 2.7-8.2 2.7z"/><path fill-rule="evenodd" class="d" d="m88.5 80.3c3.1 3.8 4.8 9 4.9 14.4 0 5.4-1.6 10.6-4.7 14.5-3 3.9-7.1 6.1-11.4 6.2q-0.2 0-0.3 0h-0.1c-4.3 0-8.5-2.1-11.6-6-3.1-3.8-4.8-9.1-4.8-14.5 0-5.5 1.7-10.7 4.8-14.6 3.1-3.8 7.3-6 11.7-6 4.3 0 8.4 2.2 11.5 6zm0.8 25.5c2.1-3.8 3.1-8.4 2.7-13-0.4-4.7-2.2-8.9-5-12-2.7-3.1-6.3-4.8-10-4.8h-0.1c-4.3 0-8.4 2.3-11.2 6.3-2.9 4-4.2 9.3-3.8 14.7 0.5 5.3 2.8 10.2 6.3 13.3 3.5 3.1 7.9 4.2 12.1 3 3.6-1 6.8-3.7 9-7.5z"/><path class="a" d="m77 115.6c-4.1 0-8.1-1.9-11.1-5.3-3-3.5-4.9-8.1-5.4-13.2-0.4-5.1 0.7-10.2 3.1-14.3 2.4-4.2 5.9-7 9.9-8.1q0 0 0 0 0.1 0 0.1 0 0 0 0.1 0 0 0 0.1 0 0.2 0.1 0.4 0.3 0.2 0.3 0.2 0.6 0 0.3-0.2 0.6-0.1 0.2-0.4 0.3c-3.6 1-6.8 3.6-9 7.3-2.2 3.8-3.2 8.4-2.8 13.1 0.4 4.6 2.1 8.9 4.9 12 2.8 3.1 6.3 4.8 10.1 4.8q0.2 0 0.4 0 0.1 0 0.2 0 0.1 0.1 0.2 0.2 0.1 0.1 0.2 0.2 0.1 0.1 0.1 0.3 0 0.1 0 0.2 0 0.2-0.1 0.3 0 0.2-0.1 0.3-0.1 0.1-0.2 0.1-0.1 0.1-0.3 0.2 0 0 0 0-0.1 0-0.1 0 0 0-0.1 0 0 0 0 0-0.1 0.1-0.2 0.1z"/><path class="d" d="m85.1 94q-0.4 0-0.7 0.1-0.3 0.1-0.6 0.3-0.2 0.3-0.4 0.6-0.2 0.3-0.3 0.7h-1.7l-1.1-4.4q-0.1-0.1-0.1-0.3-0.1-0.1-0.2-0.1-0.1-0.1-0.2-0.2-0.1 0-0.2 0-0.1 0-0.2 0-0.1 0.1-0.2 0.2-0.1 0.1-0.1 0.2-0.1 0.1-0.1 0.2l-1.9 8.1-2.1-16.4q-0.1-0.3-0.3-0.4-0.1-0.2-0.4-0.3-0.2 0-0.4 0.2-0.2 0.2-0.2 0.5l-2.3 12.7h-2.4q-0.3 0-0.5 0.3-0.2 0.2-0.2 0.6 0 0.3 0.2 0.5 0.2 0.3 0.5 0.3h3q0.1 0 0.2-0.1 0.1 0 0.2-0.1 0.1-0.1 0.1-0.2 0.1-0.1 0.1-0.2l1.6-9.5 2.1 16q0 0.1 0.1 0.3 0 0.1 0.1 0.2 0.1 0.1 0.2 0.1 0.1 0.1 0.2 0.1h0.1q0.1 0 0.2 0 0.1-0.1 0.2-0.2 0.1-0.1 0.1-0.2 0.1-0.1 0.1-0.2l2.1-9 0.6 2.4q0.1 0.1 0.1 0.2 0.1 0.2 0.2 0.2 0.1 0.1 0.2 0.1 0.1 0.1 0.2 0.1h2.1c0.2 0.8 0.9 1.5 1.6 1.6 0.7 0.1 1.4-0.3 1.9-1 0.4-0.8 0.5-1.7 0.2-2.6-0.4-0.8-1-1.3-1.7-1.4z"/><path class="e" d="m149.8 149.9h-30.1q-0.1 0-0.1-0.1-0.1 0-0.1-0.1 0-0.1 0.1-0.2 0 0 0.1 0h30.1q0.1 0 0.1 0 0.1 0.1 0.1 0.2 0 0.1-0.1 0.1 0 0.1-0.1 0.1z"/></svg>