<svg version="1.2" xmlns="http://www.w3.org/2000/svg" viewBox="0 0 130 100" width="130" height="100"><style>.a{fill:#ffb8b8}.b{fill:#9bcb4e}.c{fill:#3f3d56}.d{fill:#f2f2f2}.e{fill:#e6e6e6}.f{fill:#2f2e41}</style><path class="a" d="m67.5 69.1q-0.4 0-0.7-0.3-0.3-0.2-0.5-0.5-0.2-0.4-0.3-0.8 0-0.4 0.1-0.8l-8.1-13.9 3.9-1.2 6.7 14c0.4 0.2 0.7 0.5 0.9 1 0.2 0.4 0.3 0.8 0.1 1.3-0.1 0.4-0.4 0.8-0.8 1-0.4 0.2-0.8 0.3-1.3 0.2z"/><path class="b" d="m58.3 55q-0.1 0-0.1 0-0.1-0.1-0.2-0.1-0.1-0.1-0.1-0.1-0.1-0.1-0.1-0.2l-2.1-4.2q-0.1-0.1-0.1-0.2 0-0.2 0-0.3 0-0.1 0.1-0.3 0.1-0.1 0.2-0.1l2.2-1.8q0.2-0.1 0.3-0.1 0.1-0.1 0.3-0.1 0.1 0 0.2 0.1 0.1 0.1 0.2 0.2l3.2 3q0.1 0.1 0.2 0.2 0.1 0.2 0.1 0.3-0.1 0.2-0.1 0.3-0.1 0.2-0.2 0.3l-3.3 2.9q-0.1 0.1-0.2 0.1 0 0.1-0.1 0.1-0.1 0-0.2 0-0.1 0-0.2 0z"/><path class="b" d="m129.9 36.2c0-10.7-8.7-36.2-19.5-36.2-10.7 0-19.4 25.5-19.4 36.2 0 5.2 2 10.2 5.7 13.8 3.6 3.7 8.6 5.7 13.7 5.7 5.2 0 10.1-2 13.8-5.7 3.6-3.6 5.7-8.6 5.7-13.8z"/><path class="c" d="m110.4 95.4q0.1 0 0.1 0 0 0 0 0 0.1 0 0.1-0.1 0 0 0 0v-79q0 0-0.1-0.1 0 0-0.1 0 0 0-0.1 0 0 0.1 0 0.1v79q0 0 0 0 0 0.1 0 0.1 0 0 0.1 0 0 0 0 0z"/><path class="c" d="m110.4 29.3q0 0 0.1 0 0 0 0 0 0 0 0 0 0 0 0-0.1l7.7-7.7q0.1 0 0.1-0.1 0 0-0.1-0.1 0 0-0.1 0 0 0-0.1 0l-7.7 7.7q0 0.1 0 0.1 0 0 0 0.1 0 0 0 0.1 0.1 0 0.1 0z"/><path class="c" d="m110.4 42.6q0.1 0 0.1 0 0.1 0 0.1-0.1 0 0 0-0.1 0 0-0.1 0l-12.9-12.9q0-0.1-0.1-0.1 0 0-0.1 0.1 0 0 0 0.1 0 0 0 0.1l12.9 12.9q0 0 0 0 0 0 0.1 0 0 0 0 0 0 0 0 0z"/><path class="d" d="m122.1 99.8q0 0-0.1 0h-23.9c-0.4-1.9-0.6-3.7 0.1-5.4 1-2.3 3.9-3.8 6.3-2.8q0.2 0.1 0.4 0.2 0.2 0.1 0.4 0.3 0.1 0.1 0.3 0.3 0.2 0.1 0.3 0.3c0.9-1.6 2.6-2.9 4.4-2.9 2.4 0 4.4 2 5 4.2 1.1-1.7 3.1-2.9 5.1-2.4 3.4 0.9 4.4 6.1 1.7 8.2z"/><path class="e" d="m28 62.8c0-7.8-6.3-26.1-14-26.1-7.7 0-14 18.3-14 26.1 0 3.7 1.5 7.2 4.1 9.9 2.6 2.6 6.2 4 9.9 4 3.7 0 7.3-1.4 9.9-4 2.6-2.7 4.1-6.2 4.1-9.9z"/><path class="c" d="m14 96.8q0 0 0 0 0.1 0 0.1 0 0-0.1 0-0.1 0 0 0 0v-48.2q0-0.1 0-0.1-0.1-0.1-0.1-0.1 0 0-0.1 0.1 0 0 0 0.1v48.2q0 0 0 0 0 0 0 0.1 0 0 0.1 0 0 0 0 0z"/><path class="c" d="m14 57.8q0 0 0 0 0 0 0 0 0.1 0 0.1-0.1 0 0 0 0l5.5-5.5q0.1 0 0.1-0.1 0 0-0.1-0.1 0 0-0.1 0 0 0 0 0l-5.6 5.6q0 0 0 0 0 0.1 0 0.1 0 0 0 0 0.1 0.1 0.1 0.1z"/><path class="c" d="m14 67.3q0 0 0.1 0 0 0 0 0 0-0.1 0-0.1 0 0 0 0l-9.3-9.3q0 0-0.1 0 0 0-0.1 0 0 0 0 0.1 0 0 0 0l9.3 9.3q0 0 0 0 0 0 0.1 0 0 0 0 0 0 0 0 0z"/><path class="d" d="m22.3 99.8q0 0 0 0h-17.2c-0.3-1.3-0.5-2.7 0.1-3.9 0.7-1.7 2.8-2.7 4.5-2q0.1 0.1 0.3 0.2 0.1 0.1 0.2 0.2 0.2 0.1 0.3 0.2 0.1 0.1 0.2 0.2c0.6-1.2 1.8-2 3.2-2 1.7 0 3.1 1.4 3.6 3 0.7-1.3 2.2-2.2 3.6-1.8 2.4 0.6 3.2 4.4 1.2 5.9z"/><path class="c" d="m29.1 99.8h61q0 0 0.1 0 0-0.1 0-0.1 0-0.1 0-0.1-0.1-0.1-0.1-0.1h-61q-0.1 0-0.2 0.1 0 0 0 0.1 0 0 0 0.1 0.1 0 0.2 0z"/><path class="b" d="m57.9 56q-0.1 0-0.1 0-0.1-0.1-0.2-0.1-0.1-0.1-0.1-0.1-0.1-0.1-0.1-0.2l-2-4.3q-0.1-0.1-0.1-0.2 0-0.1 0-0.3 0.1-0.1 0.1-0.2 0.1-0.1 0.2-0.2l2.4-1.7q0.1-0.1 0.2-0.1 0.1 0 0.3 0 0.1 0 0.2 0 0.2 0.1 0.3 0.2l3 3.1q0.1 0.1 0.2 0.2 0.1 0.2 0.1 0.4-0.1 0.1-0.1 0.3-0.1 0.1-0.2 0.2l-3.4 2.9q-0.1 0-0.2 0.1 0 0-0.1 0-0.1 0-0.2 0-0.1 0-0.2 0z"/><path class="a" d="m45.2 96.4l2 0.5 3.1-7.5-3-0.8-2.1 7.8z"/><path class="f" d="m50.6 99.9l-6.4-1.8 0.7-2.4 4.1 1.1q0.4 0.1 0.8 0.4 0.4 0.3 0.6 0.7 0.2 0.4 0.3 0.9 0.1 0.4-0.1 0.9v0.2c41.8 134.2 41.8 134.2 41.8 134.2z"/><path class="a" d="m62.5 97.9h2.1l1-8.1h-3.1v8.1z"/><path class="f" d="m68.6 99.9h-6.6v-2.6h4.3q0.4 0 0.9 0.2 0.4 0.2 0.7 0.5 0.4 0.3 0.6 0.8 0.1 0.4 0.1 0.9v0.2c93.2 119.3 93.2 119.3 93.2 119.3z"/><path class="a" d="m62.3 43.2c-1.6 1.7-4.3 1.7-5.9 0-1.7-1.6-1.7-4.3 0-5.9 1.6-1.6 4.3-1.6 5.9 0 1.6 1.6 1.6 4.3 0 5.9z"/><path class="f" d="m61.9 91.5l-2.4-17.2q0-0.2-0.2-0.3-0.1-0.2-0.3-0.2-0.2 0-0.4 0-0.1 0.1-0.2 0.3l-8 16.6q-0.1 0.1-0.2 0.2-0.1 0.1-0.2 0.2-0.1 0-0.3 0-0.1 0-0.3 0l-3-1q-0.2 0-0.3-0.1-0.1-0.1-0.2-0.3-0.1-0.1-0.1-0.2 0-0.2 0.1-0.3c3.7-13.3 6.9-23.1 10.6-28.1q0-0.1 0-0.1l0.8-0.9q0.1-0.1 0.1-0.2 0.1 0 0.2 0 0-0.1 0.1-0.1 0.1 0 0.2 0h5.9q0.1 0 0.2 0 0.1 0.1 0.2 0.1 0.1 0.1 0.2 0.2 0.1 0.1 0.1 0.2l0.2 0.4q0 0 0 0 0 0 0 0 0 0 0 0 0 0 0 0.1c1.9 7.3 2.4 17 1.6 30.6q-0.1 0.2-0.1 0.3-0.1 0.1-0.2 0.2-0.1 0.1-0.2 0.2-0.2 0-0.3 0h-2.9q-0.1 0-0.2 0-0.2-0.1-0.3-0.2-0.1 0-0.2-0.2 0-0.1 0-0.2z"/><path class="b" d="m56.2 60.7c-0.9-1.4-4.9-8.4-1.3-13.1q0-0.1 0.1-0.1 0 0 0-0.1 0 0 0 0 0-0.1 0-0.1l0.2-1.1q0-0.2 0.1-0.3 0.1-0.2 0.2-0.2 0.1-0.1 0.3-0.2 0.1 0 0.3 0c1.2 0.2 3.6 1 5.4 3.2q0 0.1 0 0.1 0 0.1 0.1 0.1 0 0.1 0 0.1 0 0.1 0 0.1l0.1 0.8q0 0 0.1 0.1 0 0.1 0 0.2 0.1 0 0.1 0.1 0.1 0 0.2 0c1.1 0.5 3.6 2.5 2.7 9.9q-0.1 0.1-0.1 0.2-0.1 0.1-0.2 0.2-0.1 0.1-0.2 0.2-0.1 0-0.3 0l-7.2 0.3q0 0 0 0-0.1 0-0.2-0.1-0.1 0-0.1 0-0.1-0.1-0.2-0.1-0.1-0.1-0.1-0.2z"/><path class="a" d="m53.3 72q-0.3-0.3-0.4-0.7-0.2-0.4-0.1-0.8 0-0.4 0.3-0.8 0.2-0.3 0.5-0.5l2.2-16 3.7 1.4-3.2 15.2c0.2 0.4 0.2 0.9 0.1 1.3-0.1 0.5-0.3 0.9-0.7 1.1-0.4 0.3-0.8 0.4-1.3 0.4-0.4-0.1-0.8-0.3-1.1-0.6z"/><path class="b" d="m54.6 55.2q0-0.1-0.1-0.2 0-0.1-0.1-0.1 0-0.1 0-0.2 0-0.1 0-0.2l0.9-4.6q0-0.2 0.1-0.3 0.1-0.1 0.2-0.2 0.1-0.1 0.2-0.1 0.1 0 0.3 0h2.8q0.2 0 0.3 0 0.1 0.1 0.2 0.1 0.2 0.1 0.2 0.3 0.1 0.1 0.1 0.2l0.7 4.3q0 0.2 0 0.3-0.1 0.2-0.2 0.3-0.1 0.1-0.2 0.2-0.2 0.1-0.3 0.1l-4.5 0.3q0 0-0.1 0-0.1 0-0.2 0-0.1-0.1-0.2-0.1 0-0.1-0.1-0.1z"/><path class="f" d="m54.7 37.7q0.1-0.4 0.2-0.8 0.1-0.3 0.2-0.7 0.1-0.3 0.2-0.7 0-0.4 0.1-0.7c0-0.6-0.1-1.2-0.5-1.6-0.8-0.8-2.1-0.4-3 0.3-1.1 1-1.7 2.6-2 4.1-0.2 1.5-0.1 3.1-0.1 4.7-0.1 1.5-0.3 3.1-1.1 4.5-0.8 1.3-2.3 2.3-3.8 2.2q-0.3 0-0.5-0.1-0.2 0-0.4-0.1-0.2-0.1-0.4-0.2-0.2-0.1-0.4-0.3-0.2-0.2-0.3-0.4-0.1-0.2-0.2-0.4-0.1-0.2-0.1-0.4 0-0.3 0-0.5c-0.8 1.4-0.4 3.4 0.8 4.5 1.2 1.1 3 1.4 4.6 0.9 1.5-0.5 2.8-1.6 3.6-3.1 0.7-1.4 1-3.1 1-4.7-0.1-1.3-0.3-2.5-0.1-3.7 0.3-1.3 1-2.5 2.2-2.8z"/><path class="f" d="m58.6 44.2q-0.2-0.4-0.3-0.9 0-0.4 0.1-0.9 0.1-0.4 0.4-0.8 0.4-0.3 0.8-0.5c0.7-0.4 1.6-0.2 2.4-0.4 1.5-0.3 2.7-1.6 2.8-3.1 0.1-1.5-1-3-2.4-3.3-0.6-0.2-1.2-0.1-1.8-0.1q-0.9 0-1.7 0.1c-1.2 0.1-2.3 0.4-3.2 1.1-1 0.6-1.7 1.6-1.7 2.8 0.1 1.3 0.7 3.8 1.5 4.8 0.8 1 1.5 1.3 2.8 1.4z"/><path class="b" d="m74.4 59.7h-1.9v-2q0-0.1-0.1-0.2-0.1 0-0.2 0-0.1 0-0.1 0-0.1 0.1-0.1 0.2v2h-2q-0.1 0-0.2 0.1 0 0 0 0.1 0 0.1 0 0.2 0.1 0.1 0.2 0.1h2v1.9q0 0.1 0.1 0.2 0 0.1 0.1 0.1 0.1 0 0.2-0.1 0.1-0.1 0.1-0.2v-1.9h1.9q0.1 0 0.2-0.1 0.1-0.1 0.1-0.2 0-0.1-0.1-0.1-0.1-0.1-0.2-0.1z"/><path class="b" d="m68.8 29.1h-1.9v-1.9q0-0.1-0.1-0.2-0.1-0.1-0.2-0.1-0.1 0-0.1 0.1-0.1 0.1-0.1 0.2v1.9h-2q-0.1 0-0.2 0.1 0 0.1 0 0.2 0 0.1 0 0.1 0.1 0.1 0.2 0.1h2v2q0 0.1 0.1 0.2 0 0 0.1 0 0.1 0 0.2 0 0.1-0.1 0.1-0.2v-2h1.9q0.1 0 0.2-0.1 0.1 0 0.1-0.1 0-0.1-0.1-0.2-0.1-0.1-0.2-0.1z"/><path class="b" d="m43.2 38.1h-1.9v-2q0-0.1-0.1-0.2-0.1 0-0.2 0-0.1 0-0.2 0 0 0.1 0 0.2v2h-2q-0.1 0-0.2 0.1 0 0 0 0.1 0 0.1 0 0.2 0.1 0.1 0.2 0.1h2v1.9q0 0.1 0 0.2 0.1 0.1 0.2 0.1 0.1 0 0.2-0.1 0.1-0.1 0.1-0.2v-1.9h1.9q0.1 0 0.2-0.1 0.1-0.1 0.1-0.2 0-0.1-0.1-0.1-0.1-0.1-0.2-0.1z"/></svg>