<svg version="1.2" xmlns="http://www.w3.org/2000/svg" viewBox="0 0 100 100" width="100" height="100"><style>.a{fill:#f2f2f2}.b{fill:#2f2e41}.c{fill:#3f3d56}.d{opacity:.1}.e{fill:none;stroke:#3f3d56;stroke-width:.3}.f{fill:#ffb8b8}.g{fill:#9bcb4e}.h{fill:none;stroke:#6c63ff;stroke-width:.3}</style><path class="a" d="m91.1 46c0 5.9-1.2 11.8-3.4 17.3-2.2 5.5-5.4 10.5-9.6 14.8-4.1 4.2-9 7.6-14.4 10-5.5 2.4-11.3 3.8-17.2 4q-0.8 0-1.6 0-4.1 0-8.1-0.8-4.1-0.6-7.9-2.1-3.8-1.4-7.4-3.5-3.5-2-6.6-4.7-1.8-1.5-3.4-3.2-0.8-0.9-1.6-1.9-0.8-0.9-1.6-1.9-0.8-1-1.5-2.1-0.7-1-1.4-2-0.9-1.6-1.7-3.2-0.8-1.6-1.5-3.3-0.7-1.6-1.3-3.3-0.5-1.8-0.9-3.5v-21.1q0.4-1.8 1-3.6 0.5-1.7 1.3-3.4 0.6-1.7 1.5-3.4 0.8-1.6 1.8-3.2c1.5 1 3.2 1.3 4.9 1 1.7-0.2 3.2-1.1 4.4-2.4 1.1-1.4 1.7-3 1.7-4.7 0-1.7-0.6-3.4-1.7-4.7 3.3-2.8 7-5.2 11-7 4-1.8 8.2-3 12.5-3.6 4.3-0.6 8.7-0.6 13.1 0 4.2 0.6 8.5 1.8 12.4 3.6q0.8 0.3 1.4 0.6c15.3 7.6 25.8 23.2 25.8 41.3z"/><path class="a" d="m9.7 21.2c-2.4 0-4.3-2-4.3-4.4 0-2.4 1.9-4.3 4.3-4.3 2.4 0 4.4 1.9 4.4 4.3 0 2.4-2 4.4-4.4 4.4z"/><path class="b" d="m99.9 99.9l-85-0.2v-43.4q0 0 0.2 0c0.7-0.2 2.3-0.3 4.5-0.5 5.3-0.4 14.2-0.7 24.2 0.5q2.3 0.2 4.7 0.6 1.9 0.3 3.9 0.7 0.9 0.2 1.7 0.4 2 0.4 3.8 0.9 1.6 0.4 3.2 0.9 1.6 0.5 3.2 1.1 1.6 0.5 3.1 1.1 1.5 0.7 3.1 1.3 2.5 1.2 4.9 2.6 0.9 0.5 1.8 1.1 0.9 0.5 1.7 1.1 0.8 0.6 1.7 1.2 0.8 0.6 1.6 1.2c8.3 6.6 14.9 16.1 17.7 29.4z"/><path class="c" d="m85 99.9h-85v-43.5q0.1 0 0.1 0 0.2-0.1 0.4-0.1c0.9 0 2.3-0.2 4.2-0.4 1.4-0.1 2.9-0.2 4.6-0.2 3.3-0.2 7.2-0.2 11.4 0 2.6 0.2 5.4 0.4 8.2 0.7q2.3 0.3 4.6 0.6 2 0.3 4 0.7 0.9 0.2 1.8 0.4 1.8 0.4 3.8 0.9 1.2 0.3 2.4 0.7 1.2 0.4 2.4 0.8 1.1 0.3 2.3 0.8 1.1 0.4 2.3 0.8 1.6 0.7 3 1.4 0.9 0.4 1.8 0.8 1.6 0.8 3.2 1.8 0.6 0.3 1.2 0.7 0.7 0.3 1.3 0.7 0.6 0.4 1.2 0.8 0.5 0.4 1.1 0.8 0.2 0.2 0.4 0.3 0.8 0.6 1.6 1.3 0.3 0.2 0.6 0.4 1.3 1.1 2.6 2.3 0.8 0.7 1.5 1.5 0.8 0.8 1.5 1.6 0.7 0.8 1.4 1.6 0.7 0.9 1.3 1.8c4 5.4 7.1 12 8.8 20z"/><path class="d" d="m40.5 73.5c-0.4 0.8-3.6 0.1-7.2-1.5-3.6-1.6-6.2-3.5-5.8-4.3 0.4-0.8 3.6-0.2 7.2 1.4 3.5 1.6 6.2 3.6 5.8 4.4z"/><path class="d" d="m53.5 76.8c-0.4 0.8-3.5 0.1-7.1-1.5-3.6-1.6-6.2-3.6-5.9-4.4 0.4-0.8 3.6-0.1 7.2 1.5 3.6 1.7 6.2 3.6 5.8 4.4z"/><path class="e" d="m9.3 57.1v-9.7"/><path class="c" d="m9.3 48.7c-0.7 0-1.4-0.6-1.4-1.3 0-0.8 0.7-1.4 1.4-1.4 0.8 0 1.4 0.6 1.4 1.4 0 0.7-0.6 1.3-1.4 1.3z"/><path class="c" d="m9.3 53.4c0 0-0.2-4.3-4.2-3.7z"/><path class="b" d="m31.5 18.3l1 0.1 3.4 0.3 5.4 0.5 0.6-5.9q0-0.8-0.2-1.6-0.3-0.8-0.8-1.4-0.6-0.7-1.3-1.1-0.7-0.4-1.6-0.5-0.9 0-1.7 0.2-0.9 0.2-1.7 0.6-0.7 0.4-1.3 1.1-0.6 0.7-1 1.5 0 0.2-0.1 0.4-0.1 0.2-0.1 0.4-0.1 0.2-0.2 0.4 0 0.3 0 0.5z"/><path class="f" d="m35.7 15.7c0 0 0.4 3.3 0 3.4-0.4 0.2-1.8 0.7-1.8 0.7l2.4 2.5 3.4 0.1 0.8-2.5-0.8-0.6-0.2-3.3z"/><path class="d" d="m35.7 15.7c0 0 0.4 3.3 0 3.4-0.4 0.2-1.8 0.7-1.8 0.7l2.4 2.5 3.4 0.1 0.8-2.5-0.8-0.6-0.2-3.3z"/><path class="f" d="m30.5 21.7l-1 9.1-1.5 9.2c0 0-1.2 4.5 1.1 4.3 2.2-0.1 0.6-4.6 0.6-4.6l2.1-7.7 0.9-7.9z"/><path class="f" d="m44.6 21.9l0.9 9.3 5.4 5.1c0 0 3.6 1.9 2.9 3-0.7 1.2-4.3-1.9-4.3-1.9l-6.5-4.6-0.4-5.8 0.4-5.8z"/><path class="b" d="m30.9 66.1c0 0-1.8 3.1-0.9 3.5 0.9 0.4 3.5 1.6 3.5 1.6 0 0 4.1 0.7 4-0.4-0.2-1.2-1.7-1.2-1.7-1.2 0 0-2.3-2.3-2.2-3 0.1-0.8-2.7-0.5-2.7-0.5z"/><path class="d" d="m30.9 66.1c0 0-1.8 3.1-0.9 3.5 0.9 0.4 3.5 1.6 3.5 1.6 0 0 4.1 0.7 4-0.4-0.2-1.2-1.7-1.2-1.7-1.2 0 0-2.3-2.3-2.2-3 0.1-0.8-2.7-0.5-2.7-0.5z"/><path class="b" d="m42.5 40.3l0.4 2.1-2.9 11.7-1.7 1.8-4.5 10.7h-3.3c0 0 2.1-8.3 3.7-10.8 1.6-2.5 4.2-15.3 4.2-15.3z"/><path class="d" d="m37 49.4l2.4 0.4 0.6 4.3-1.7 1.8-4.5 10.7h-3.3c0 0 2.1-8.3 3.7-10.8 1.6-2.5 4.2-15.3 4.2-15.3z"/><path class="b" d="m33 36.7c0 0-2.1 4 1.3 8.8 3.4 4.9 4.9 9.8 4.9 9.8 0 0-0.3 8.8 2.5 12.3l1 2.4 3.2-1.9c0 0-3.6-5.4-2.8-11.9 0 0 0.8-2.1 0-3.8-0.8-1.7-2.8-9.9-2.8-9.9l2.6-0.1c0 0 0.8-5-0.6-5.7-1.2-0.6-9.3 0-9.3 0z"/><path class="b" d="m45 67.7c0 0 2.9 2.6 4.6 2.8 1.7 0.3 1.7 1.4-0.3 1.7 0 0-3.9 1.6-6.4 0.4v-3.3z"/><path class="f" d="m37.8 17.1c-1.7 0-3.1-1.4-3.1-3.2 0-1.7 1.4-3.1 3.1-3.1 1.8 0 3.2 1.4 3.2 3.1 0 1.8-1.4 3.2-3.2 3.2z"/><path class="g" d="m35.3 19.9l0.4-0.8c0 0-6.2 2.1-5.6 3.2 0.6 1 2.5 2.6 2.5 2.6v2.1c0 0 2 6.1 0 9.5-2 3.4 10.8 2.4 10.4 0-0.4-2.4-0.9-4.9-0.4-6.1 0.5-1.1 1.5-2.5 0.7-5.6l2-2.1c0 0-0.7-2.1-2.4-2.5-1.7-0.4-3.1-0.9-3.1-0.9 0 0 0.9 1.7-0.6 1.8-1.5 0.1-3.9-1.2-3.9-1.2z"/><path class="b" d="m32.5 18.4c0.3 0.3 0.7 0.6 1.2 0.7q0.7 0.2 1.4 0c0.4-0.1 0.8-0.4 1.1-0.8 0.3-0.3 0.5-0.8 0.5-1.2-2.6-1.6-1.8-3.6 0.6-5.8q0-0.4-0.1-0.8-0.1-0.3-0.2-0.6-0.2-0.3-0.5-0.6-0.2-0.2-0.5-0.4-0.6 0.2-1.2 0.5-0.5 0.3-1 0.7-0.5 0.4-0.9 0.9-0.3 0.5-0.6 1.1l-0.4 4.5q0 0.3 0 0.5 0 0.2 0.1 0.4 0.1 0.3 0.2 0.5 0.1 0.2 0.3 0.4z"/><path class="b" d="m36.2 12.3l4.9 0.2v-2q-0.2-0.2-0.3-0.4-0.2-0.2-0.4-0.4-0.1-0.1-0.4-0.2-0.2-0.2-0.4-0.3l-3.3-0.1z"/><path class="b" d="m45.9 99.9h-45.9v-27.2c1.7 0.2 3-1.7 4.5-2.5 1.3-0.7 2.7-0.7 4.1-0.7 2.2 0 4.5 0 6.6 0.8q0.3 0 0.5 0.2 0.2 0 0.5 0.2 0.3 0.1 0.5 0.2 0.2 0.1 0.4 0.2c1.4 0.8 2.4 2 3 3.4 0.4 0.8 0.6 1.8 1.5 2.2 0.5 0.2 1 0.2 1.5 0q2.6-0.4 5.3-0.7c1.3-0.2 2.8-0.4 3.9 0.3 1.7 1.1 1.7 3.6 1.4 5.6-0.2 2-0.5 4.4 1 5.8 1.8 1.7 4.8 0.6 7.2 1q0.8 0.2 1.6 0.5 0.8 0.4 1.5 0.9 0.7 0.6 1.1 1.4 0.5 0.7 0.8 1.6c0.6 2.2-0.2 4.6-1 6.8z"/><path class="e" d="m11.2 99.8l0.5-27.2"/><path class="c" d="m11.6 74.5c-1 0-1.9-0.9-1.9-1.9 0-1.1 0.9-1.9 1.9-1.9 1.1 0 1.9 0.8 1.9 1.9 0 1-0.8 1.9-1.9 1.9z"/><path class="c" d="m11.5 80.3c0 0-0.2-5.8-5.7-5.2z"/><path class="e" d="m11.2 99.3c0 0 1.4-11.2-5.6-11.8"/><path class="c" d="m5.6 89.4c-1.1 0-1.9-0.8-1.9-1.9 0-1.1 0.8-1.9 1.9-1.9 1 0 1.9 0.8 1.9 1.9 0 1.1-0.9 1.9-1.9 1.9z"/><path class="e" d="m22.1 99.9v-9.8"/><path class="c" d="m22.1 91.5c-0.7 0-1.4-0.6-1.4-1.4 0-0.8 0.7-1.4 1.4-1.4 0.8 0 1.4 0.6 1.4 1.4 0 0.8-0.6 1.4-1.4 1.4z"/><path class="c" d="m22.1 96.1c0 0-0.2-4.2-4.2-3.8z"/><path class="c" d="m67.9 40.2h2.6v40.1h-2.6z"/><path class="c" d="m52.1 38.9h34.2v16h-34.2z"/><path class="g" d="m58 43.1h21.9v0.6h-21.9z"/><path class="g" d="m58 44.7h21.9v0.5h-21.9z"/><path class="g" d="m58 46.3h21.9v0.5h-21.9z"/><path class="g" d="m69.2 40.7c-1 0-1.9-0.8-1.9-1.8 0-1 0.9-1.8 1.9-1.8 1 0 1.8 0.8 1.8 1.8 0 1-0.8 1.8-1.8 1.8z"/><path class="h" d="m77.2 53c-1 0-1.7-0.8-1.7-1.7 0-1 0.7-1.8 1.7-1.8 1 0 1.7 0.8 1.7 1.8 0 0.9-0.7 1.7-1.7 1.7z"/><path class="g" d="m76.5 50.9c-0.1 0-0.2-0.2-0.2-0.3 0-0.1 0.1-0.3 0.2-0.3 0.2 0 0.3 0.2 0.3 0.3 0 0.1-0.1 0.3-0.3 0.3z"/><path class="g" d="m77.9 50.9c-0.2 0-0.3-0.2-0.3-0.3 0-0.1 0.1-0.3 0.3-0.3 0.1 0 0.2 0.2 0.2 0.3 0 0.1-0.1 0.3-0.2 0.3z"/><path class="g" d="m76.4 51.7c0 0 0.7 0.9 1.6 0z"/><path class="g" d="m76.5 49.7l1.4-1.8 0.6 2.2c0 0-0.6-0.8-2-0.4z"/></svg>